grf
version=1
nRows=19
nColumns=37
inDegrees=no
endheader
time	ground_force_1_vx	ground_force_1_vy	ground_force_1_vz	ground_force_1_px	ground_force_1_py	ground_force_1_pz	ground_moment_1_mx	ground_moment_1_my	ground_moment_1_mz	ground_force_2_vx	ground_force_2_vy	ground_force_2_vz	ground_force_2_px	ground_force_2_py	ground_force_2_pz	ground_moment_2_mx	ground_moment_2_my	ground_moment_2_mz	ground_force_3_vx	ground_force_3_vy	ground_force_3_vz	ground_force_3_px	ground_force_3_py	ground_force_3_pz	ground_moment_3_mx	ground_moment_3_my	ground_moment_3_mz	ground_force_4_vx	ground_force_4_vy	ground_force_4_vz	ground_force_4_px	ground_force_4_py	ground_force_4_pz	ground_moment_4_mx	ground_moment_4_my	ground_moment_4_mz
      0.00000000	      0.00000000	     -0.00000000	      0.00000000	      0.00000000	      0.00000000	      0.00000000	      0.00000000	      0.00000000	      0.00000000	     11.32134819	     98.29408264	   -799.31262207	   -395.58946660	  -1171.40899216	      0.00000000	      0.00000000	      0.00000000	    333.08344838	      0.00000000	     -0.00000000	      0.00000000	      0.00000000	      0.00000000	      0.00000000	      0.00000000	      0.00000000	      0.00000000	      0.00000000	     -0.00000000	      0.00000000	      0.00000000	      0.00000000	      0.00000000	      0.00000000	      0.00000000	      0.00000000
      0.01000000	      0.00000000	     -0.00000000	      0.00000000	      0.00000000	      0.00000000	      0.00000000	      0.00000000	      0.00000000	      0.00000000	     11.49984264	     99.46952820	   -796.77392578	   -394.50778132	  -1172.40403348	      0.00000000	      0.00000000	      0.00000000	     75.15547744	      9.47845524	      7.45748819	    -25.59877777	   -321.80705481	   -696.37601109	      0.00000000	      0.00000000	     -0.00000000	    -43.90230032	      0.00000000	     -0.00000000	      0.00000000	      0.00000000	      0.00000000	      0.00000000	      0.00000000	      0.00000000	      0.00000000
      0.02000000	      0.00000000	     -0.00000000	      0.00000000	      0.00000000	      0.00000000	      0.00000000	      0.00000000	      0.00000000	      0.00000000	     10.85893059	    100.30467224	   -788.84674072	   -393.76388609	  -1171.90170108	      0.00000000	      0.00000000	      0.00000000	     48.16443658	      4.23086233	      7.63689958	    -34.98036575	   -332.81464935	   -698.72887019	      0.00000000	      0.00000000	     -0.00000000	   -632.65180769	      0.00000000	     -0.00000000	      0.00000000	      0.00000000	      0.00000000	      0.00000000	      0.00000000	      0.00000000	      0.00000000
      0.03000000	      0.00000000	     -0.00000000	      0.00000000	      0.00000000	      0.00000000	      0.00000000	      0.00000000	      0.00000000	      0.00000000	     10.46219444	     99.93972015	   -779.69165039	   -392.30246457	  -1172.87207045	      0.00000000	      0.00000000	     -0.00000000	   -431.29930677	     -2.60549669	     10.38274883	    -44.18724823	   -356.03229425	   -716.57734055	      0.00000000	      0.00000000	     -0.00000000	   -642.79536507	      0.00000000	     -0.00000000	      0.00000000	      0.00000000	      0.00000000	      0.00000000	      0.00000000	      0.00000000	      0.00000000
      0.04000000	      0.00000000	     -0.00000000	      0.00000000	      0.00000000	      0.00000000	      0.00000000	      0.00000000	      0.00000000	      0.00000000	     10.26732349	     99.17781067	   -763.51080322	   -391.38920909	  -1172.12351990	      0.00000000	      0.00000000	     -0.00000000	   -439.12196524	      1.42752240	     11.98021876	    -63.95888901	   -366.23445604	   -711.25915556	      0.00000000	      0.00000000	     -0.00000000	   -729.25495418	      0.00000000	     -0.00000000	      0.00000000	      0.00000000	      0.00000000	      0.00000000	      0.00000000	      0.00000000	      0.00000000
      0.05000000	      0.00000000	     -0.00000000	      0.00000000	      0.00000000	      0.00000000	      0.00000000	      0.00000000	      0.00000000	      0.00000000	      9.57773590	     97.97845459	   -751.98638916	   -389.85997292	  -1173.01734875	      0.00000000	      0.00000000	     -0.00000000	   -767.63535657	      3.69350718	     10.68692366	    -81.51146698	   -371.52707473	   -714.85809845	      0.00000000	      0.00000000	     -0.00000000	  -1128.09485749	      0.00000000	     -0.00000000	      0.00000000	      0.00000000	      0.00000000	      0.00000000	      0.00000000	      0.00000000	      0.00000000
      0.06000000	      0.00000000	     -0.00000000	      0.00000000	      0.00000000	      0.00000000	      0.00000000	      0.00000000	      0.00000000	      0.00000000	      9.61079502	     96.43910217	   -736.60705566	   -389.02760145	  -1172.37472128	      0.00000000	      0.00000000	     -0.00000000	   -621.64136627	      1.09714128	      5.64516106	    -95.00077820	   -374.08879195	   -711.04801961	      0.00000000	     -0.00000000	     -0.00000000	  -1222.45551031	      0.00000000	     -0.00000000	      0.00000000	      0.00000000	      0.00000000	      0.00000000	      0.00000000	      0.00000000	      0.00000000
      0.07000000	      0.00000000	     -0.00000000	      0.00000000	      0.00000000	      0.00000000	      0.00000000	      0.00000000	      0.00000000	      0.00000000	      8.90521622	     95.28830719	   -725.18090820	   -386.67656138	  -1172.58079224	      0.00000000	      0.00000000	     -0.00000000	   -786.88435993	      0.68459196	      0.75530928	   -110.07665253	   -378.81476571	   -709.03388749	      0.00000000	      0.00000000	     -0.00000000	   -982.69959779	      0.00000000	     -0.00000000	      0.00000000	      0.00000000	      0.00000000	      0.00000000	      0.00000000	      0.00000000	      0.00000000
      0.08000000	      0.00000000	     -0.00000000	      0.00000000	      0.00000000	      0.00000000	      0.00000000	      0.00000000	      0.00000000	      0.00000000	      8.32291985	     93.57907867	   -711.31536865	   -384.81067523	  -1172.21188438	      0.00000000	      0.00000000	      0.00000000	   -996.65423650	      1.86292618	     -3.45240466	   -125.36908722	   -382.56960285	   -713.65306744	      0.00000000	      0.00000000	     -0.00000000	   -996.62768056	      0.00000000	     -0.00000000	      0.00000000	      0.00000000	      0.00000000	      0.00000000	      0.00000000	      0.00000000	      0.00000000
      0.09000000	      0.00000000	     -0.00000000	      0.00000000	      0.00000000	      0.00000000	      0.00000000	      0.00000000	      0.00000000	      0.00000000	      6.88834906	     92.11417389	   -695.99438477	   -383.57273222	  -1172.53645530	      0.00000000	      0.00000000	     -0.00000000	   -944.00914571	      2.14470017	     -6.81634349	   -141.65266418	   -386.48972731	   -710.59028071	      0.00000000	      0.00000000	     -0.00000000	   -976.78008277	      0.00000000	     -0.00000000	      0.00000000	      0.00000000	      0.00000000	      0.00000000	      0.00000000	      0.00000000	      0.00000000
      0.10000000	      0.00000000	     -0.00000000	      0.00000000	      0.00000000	      0.00000000	      0.00000000	      0.00000000	      0.00000000	      0.00000000	      5.80640650	     90.43649292	   -680.96148682	   -381.02626462	  -1172.57374741	      0.00000000	      0.00000000	     -0.00000000	  -1096.97023804	      3.37100884	    -11.29410392	   -157.30145264	   -387.14055929	   -708.35499487	      0.00000000	      0.00000000	     -0.00000000	   -814.72675737	      0.00000000	     -0.00000000	      0.00000000	      0.00000000	      0.00000000	      0.00000000	      0.00000000	      0.00000000	      0.00000000
      0.11000000	      0.00000000	     -0.00000000	      0.00000000	      0.00000000	      0.00000000	      0.00000000	      0.00000000	      0.00000000	      0.00000000	      4.16225052	     89.01065826	   -664.08880615	   -379.04172767	  -1171.78734638	      0.00000000	     -0.00000000	     -0.00000000	  -1292.30098580	      3.59865608	    -17.46834023	   -169.93003845	   -389.72401111	   -710.92777840	      0.00000000	      0.00000000	     -0.00000000	   -750.29691700	      0.00000000	     -0.00000000	      0.00000000	      0.00000000	      0.00000000	      0.00000000	      0.00000000	      0.00000000	      0.00000000
      0.12000000	      0.00000000	     -0.00000000	      0.00000000	      0.00000000	      0.00000000	      0.00000000	      0.00000000	      0.00000000	      0.00000000	      2.85473633	     87.47299194	   -645.99609375	   -376.35386848	  -1172.24403326	      0.00000000	      0.00000000	     -0.00000000	  -1164.48111916	      3.20121056	    -23.87239866	   -188.04267883	   -390.42737237	   -703.60455019	      0.00000000	      0.00000000	     -0.00000000	   -410.49173103	      0.00000000	     -0.00000000	      0.00000000	      0.00000000	      0.00000000	      0.00000000	      0.00000000	      0.00000000	      0.00000000
      0.13000000	      0.00000000	     -0.00000000	      0.00000000	      0.00000000	      0.00000000	      0.00000000	      0.00000000	      0.00000000	      0.00000000	      1.26290298	     85.80250549	   -629.45172119	   -374.22847633	  -1172.86802770	      0.00000000	      0.00000000	     -0.00000000	  -1141.65819399	      3.63713938	    -32.06280168	   -201.23037720	   -391.68999896	   -704.72795413	      0.00000000	      0.00000000	     -0.00000000	   -418.20409083	      0.00000000	     -0.00000000	      0.00000000	      0.00000000	      0.00000000	      0.00000000	      0.00000000	      0.00000000	      0.00000000
      0.14000000	      0.00000000	     -0.00000000	      0.00000000	      0.00000000	      0.00000000	      0.00000000	      0.00000000	      0.00000000	      0.00000000	     -0.46095777	     84.28758240	   -607.73413086	   -372.01538437	  -1171.66898568	      0.00000000	      0.00000000	     -0.00000000	  -1086.23266839	      4.19187299	    -39.17871130	   -216.88211060	   -392.35417179	   -703.63052711	      0.00000000	      0.00000000	     -0.00000000	   -327.86034629	      0.00000000	     -0.00000000	      0.00000000	      0.00000000	      0.00000000	      0.00000000	      0.00000000	      0.00000000	      0.00000000
      0.15000000	      0.00000000	     -0.00000000	      0.00000000	      0.00000000	      0.00000000	      0.00000000	      0.00000000	      0.00000000	      0.00000000	     -2.18539238	     82.31219482	   -593.07897949	   -368.43501218	  -1173.28511786	      0.00000000	      0.00000000	     -0.00000000	  -1113.75915055	      3.96969862	    -44.19781910	   -230.67393494	   -393.44780924	   -703.85485079	      0.00000000	      0.00000000	     -0.00000000	   -382.68712675	      0.00000000	     -0.00000000	      0.00000000	      0.00000000	      0.00000000	      0.00000000	      0.00000000	      0.00000000	      0.00000000
      0.16000000	      0.00000000	     -0.00000000	      0.00000000	      0.00000000	      0.00000000	      0.00000000	      0.00000000	      0.00000000	      0.00000000	     -4.20022535	     80.12091064	   -574.42059326	   -366.56129696	  -1171.88049959	      0.00000000	      0.00000000	     -0.00000000	  -1120.99845098	      3.54105821	    -47.44342453	   -243.79483032	   -393.57172285	   -704.25709122	      0.00000000	      0.00000000	     -0.00000000	   -429.93211149	      0.00000000	     -0.00000000	      0.00000000	      0.00000000	      0.00000000	      0.00000000	      0.00000000	      0.00000000	      0.00000000
      0.17000000	      0.00000000	     -0.00000000	      0.00000000	      0.00000000	      0.00000000	      0.00000000	      0.00000000	      0.00000000	      0.00000000	     -5.55282640	     78.14560699	   -557.70819092	   -362.83793396	  -1171.57307241	      0.00000000	      0.00000000	     -0.00000000	   -953.19846086	      2.84603745	    -48.35555292	   -255.60769653	   -394.05159805	   -704.74682015	      0.00000000	      0.00000000	     -0.00000000	   -573.93162339	      0.00000000	     -0.00000000	      0.00000000	      0.00000000	      0.00000000	      0.00000000	      0.00000000	      0.00000000	      0.00000000
      0.18000000	      0.00000000	     -0.00000000	      0.00000000	      0.00000000	      0.00000000	      0.00000000	      0.00000000	      0.00000000	      0.00000000	     -7.59728432	     75.38994598	   -542.01727295	   -360.37892075	  -1173.04172127	      0.00000000	      0.00000000	     -0.00000000	   -672.64739429	      1.49361077	    -47.34762586	   -266.04608154	   -394.38521458	   -705.69062922	      0.00000000	      0.00000000	     -0.00000000	   -429.10960901	      0.00000000	     -0.00000000	      0.00000000	      0.00000000	      0.00000000	      0.00000000	      0.00000000	      0.00000000	      0.00000000
